<svg width="24" height="30" viewBox="0 0 24 30" fill="none" xmlns="http://www.w3.org/2000/svg">
<path fill-rule="evenodd" clip-rule="evenodd" d="M6.40285 20.2926C6.40285 20.6753 6.46628 21.1251 6.61231 21.635C6.75354 22.1484 7.042 22.6348 7.45015 23.0928C7.86788 23.5556 8.45796 23.9466 9.24792 24.2645C10.0199 24.5836 11.0505 24.7403 12.3264 24.7403C13.0302 24.7403 13.7184 24.6861 14.4078 24.5907C15.0997 24.4883 15.7197 24.3081 16.2906 24.0526C16.8436 23.7982 17.2948 23.4402 17.6419 22.9774C17.995 22.5158 18.1698 21.9176 18.1698 21.1722C18.1698 20.6388 18.0525 20.1925 17.8083 19.8322C17.545 19.4683 17.2062 19.1739 16.7538 18.9301C16.2906 18.6899 15.7556 18.4756 15.1344 18.299C14.5072 18.1223 13.8333 17.941 13.0996 17.7585L10.0941 17.0719C8.96306 16.8152 7.85112 16.5373 6.78586 16.2264C5.7218 15.9226 4.77863 15.4763 3.95994 14.9064C3.13885 14.3317 2.48174 13.571 1.97185 12.6349C1.46556 11.7128 1.20941 10.4834 1.20941 8.9785C1.20941 8.46743 1.27525 7.89749 1.38297 7.28869C1.50386 6.67517 1.70135 6.05695 1.98981 5.42695C2.27587 4.80048 2.67444 4.18697 3.17835 3.59112C3.69183 2.99056 4.34056 2.46772 5.14967 2.01082C5.9552 1.57159 6.91273 1.20301 8.03425 0.923925C9.15337 0.642486 10.4652 0.5 11.9733 0.5C14.0954 0.5 15.8693 0.808523 17.2781 1.42086C18.6844 2.03555 19.794 2.79391 20.6318 3.6865C21.4649 4.58146 22.0442 5.54353 22.3853 6.58332C22.7145 7.61487 22.8856 8.55929 22.8856 9.40007H17.2781C17.2218 9.09743 17.1344 8.70295 17.0195 8.22721C16.9058 7.75736 16.6509 7.304 16.2607 6.86947C15.8693 6.43142 15.2984 6.05695 14.5718 5.73901C13.8285 5.41988 12.8159 5.2562 11.5424 5.2562C10.9978 5.2562 10.4305 5.31744 9.84997 5.42695C9.26109 5.54353 8.74163 5.73547 8.26406 5.9863C7.79846 6.24065 7.41185 6.58332 7.12579 7.00372C6.81459 7.42764 6.67215 7.94106 6.67215 8.55928C6.67215 9.09743 6.76192 9.53667 6.96061 9.87816C7.15212 10.2244 7.41065 10.5011 7.7015 10.706C8.00911 10.9097 8.3263 11.0616 8.67939 11.1652C9.02769 11.2642 9.35325 11.356 9.63214 11.4337L16.457 13.0847C17.4121 13.312 18.3385 13.5934 19.2266 13.9255C20.1088 14.2599 20.8892 14.705 21.5606 15.2679C22.2441 15.832 22.7815 16.5373 23.1741 17.3805C23.5894 18.2177 23.7857 19.2575 23.7857 20.4834C23.7857 21.8694 23.5715 23.0516 23.1466 24.0325C22.7097 25.0158 22.1627 25.8436 21.4649 26.5066C20.7767 27.1731 20.019 27.703 19.1812 28.0975C18.3553 28.5014 17.5246 28.7958 16.7095 29.0019C15.8896 29.2068 15.1344 29.3363 14.4234 29.4046C13.7232 29.4635 13.1762 29.5 12.7489 29.5C10.2043 29.5 8.14676 29.1809 6.5764 28.5426C5.00006 27.8973 3.7792 27.1213 2.92221 26.1804C2.07239 25.2513 1.49787 24.2445 1.20941 23.1729C0.926942 22.0931 0.785706 21.1345 0.785706 20.2926H6.40285Z" fill="#231F20"/>
</svg>
