<svg width="23" height="30" viewBox="0 0 23 30" fill="none" xmlns="http://www.w3.org/2000/svg">
<path fill-rule="evenodd" clip-rule="evenodd" d="M22.7857 19.1081C22.7857 20.9341 22.5221 22.4967 22.0006 23.8042C21.4873 25.1128 20.7425 26.193 19.764 27.0343C18.7948 27.8803 17.6126 28.5049 16.2313 28.9011C14.85 29.2949 13.2971 29.5 11.5751 29.5C10.9454 29.5 10.2536 29.4511 9.50306 29.3625C8.75599 29.2716 7.99856 29.0933 7.23077 28.8463C6.45031 28.5853 5.68252 28.238 4.94697 27.8174C4.19644 27.399 3.52189 26.8467 2.91411 26.1487C2.182 25.3015 1.64674 24.3204 1.33248 23.2087C1.01708 22.0924 0.830599 20.8386 0.785706 19.4566V0.5H6.60226V19.0767C6.60226 20.0462 6.72658 20.8805 6.97637 21.5715C7.23077 22.2625 7.57955 22.8358 8.02388 23.2833C8.4636 23.7308 8.9816 24.0629 9.57903 24.2843C10.1776 24.4975 10.7969 24.6117 11.4645 24.6117C13.4329 24.6117 14.85 24.1549 15.696 23.2414C16.549 22.3289 16.9772 21.0355 16.9772 19.3435V0.5H22.7857V19.1081Z" fill="#231F20"/>
</svg>
